HIERARCHY
ROOT Hips
{
	OFFSET -171.749893 91.474121 45.959751
	CHANNELS 6 Xposition Yposition Zposition Zrotation Yrotation Xrotation 
	JOINT LeftUpLeg
	{
		OFFSET 0.103457 1.857826 10.548511
		CHANNELS 3 Zrotation Yrotation Xrotation
		JOINT LeftLeg
		{
			OFFSET 43.500004 -0.000023 -0.000002
			CHANNELS 3 Zrotation Yrotation Xrotation
			JOINT LeftFoot
			{
				OFFSET 42.372200 0.000019 -0.000004
				CHANNELS 3 Zrotation Yrotation Xrotation
				JOINT LeftToe
				{
					OFFSET 17.299992 -0.000002 0.000010
					CHANNELS 3 Zrotation Yrotation Xrotation
					End Site
					{
						OFFSET 0.000000 0.000000 0.000000
					}
				}
			}
		}
	}
	JOINT RightUpLeg
	{
		OFFSET 0.103460 1.857830 -10.548507
		CHANNELS 3 Zrotation Yrotation Xrotation
		JOINT RightLeg
		{
			OFFSET 43.500042 -0.000023 0.000004
			CHANNELS 3 Zrotation Yrotation Xrotation
			JOINT RightFoot
			{
				OFFSET 42.372261 -0.000004 0.000010
				CHANNELS 3 Zrotation Yrotation Xrotation
				JOINT RightToe
				{
					OFFSET 17.299994 -0.000004 0.000023
					CHANNELS 3 Zrotation Yrotation Xrotation
					End Site
					{
						OFFSET 0.000000 0.000000 0.000000
					}
				}
			}
		}
	}
	JOINT Spine
	{
		OFFSET 6.901968 -2.603732 -0.000001
		CHANNELS 3 Zrotation Yrotation Xrotation
		JOINT Spine1
		{
			OFFSET 12.588099 -0.000002 -0.000003
			CHANNELS 3 Zrotation Yrotation Xrotation
			JOINT Spine2
			{
				OFFSET 12.343203 0.000006 0.000013
				CHANNELS 3 Zrotation Yrotation Xrotation
				JOINT Neck
				{
					OFFSET 25.832897 -0.000006 -0.000003
					CHANNELS 3 Zrotation Yrotation Xrotation
					JOINT Head
					{
						OFFSET 11.766602 0.000011 -0.000001
						CHANNELS 3 Zrotation Yrotation Xrotation
						End Site
						{
							OFFSET 0.000000 0.000000 0.000000
						}
					}
				}
				JOINT LeftShoulder
				{
					OFFSET 19.745899 -1.480368 6.000101
					CHANNELS 3 Zrotation Yrotation Xrotation
					JOINT LeftArm
					{
						OFFSET 11.284125 -0.000008 -0.000014
						CHANNELS 3 Zrotation Yrotation Xrotation
						JOINT LeftForeArm
						{
							OFFSET 33.000042 0.000005 0.000034
							CHANNELS 3 Zrotation Yrotation Xrotation
							JOINT LeftHand
							{
								OFFSET 25.200005 0.000015 -0.000001
								CHANNELS 3 Zrotation Yrotation Xrotation
								End Site
								{
									OFFSET 0.000000 0.000000 0.000000
								}
							}
						}
					}
				}
				JOINT RightShoulder
				{
					OFFSET 19.746099 -1.480375 -6.000082
					CHANNELS 3 Zrotation Yrotation Xrotation
					JOINT RightArm
					{
						OFFSET 11.284144 -0.000014 -0.000017
						CHANNELS 3 Zrotation Yrotation Xrotation
						JOINT RightForeArm
						{
							OFFSET 33.000092 0.000015 0.000010
							CHANNELS 3 Zrotation Yrotation Xrotation
							JOINT RightHand
							{
								OFFSET 25.199768 0.000141 0.000429
								CHANNELS 3 Zrotation Yrotation Xrotation
								End Site
								{
									OFFSET 0.000000 0.000000 0.000000
								}
							}
						}
					}
				}
			}
		}
	}
}
MOTION
Frames: 15
Frame Time: 0.033333
-169.317596 47.216728 38.683250 96.803451 -66.249994 66.342276 85.723635 -1.483094 166.579339 -131.878016 2.411266 -5.662008 66.733619 6.679393 7.078244 21.454553 0.003090 0.000001 155.146135 13.081703 -164.732333 -57.815516 1.739391 -5.900198 73.539800 12.427582 25.437300 21.454553 -0.003108 -0.000022 10.178056 -2.028321 3.237678 10.231387 -4.334944 6.287358 9.914413 -4.296829 6.313322 14.802722 -12.291693 -8.918169 -26.384329 15.220848 -17.636827 -84.760646 -81.315601 -97.794437 -73.349313 -0.144733 7.338546 -32.759804 -18.518695 1.511984 -20.456509 -72.972976 23.617964 86.906207 69.920906 -93.208620 -25.841488 -6.751696 7.001774 -27.927964 11.169422 -0.970744 -17.590051 63.023125 -15.338481 
-169.156296 47.159500 39.077229 93.559918 -65.621978 68.630390 87.282844 -1.827901 167.077273 -131.786506 2.455068 -6.145267 67.131621 7.042700 7.218566 21.454553 0.003086 0.000002 153.079784 13.551106 -163.809629 -63.980807 2.034628 -3.182737 75.100314 10.572291 27.112890 21.454558 -0.003112 -0.000023 10.222137 -1.910678 3.281397 10.323440 -4.106505 6.382879 10.006630 -4.067828 6.407458 12.867821 -12.515902 -8.162826 -26.296102 14.798291 -16.836871 -84.952247 -82.208621 -97.516148 -72.644956 -0.000120 8.087677 -32.277155 -18.133720 1.476889 -19.215819 -73.018472 22.941436 87.391738 70.115095 -92.713480 -26.863747 -6.257300 5.886969 -26.714938 10.228300 -0.888828 -16.050096 59.980283 -15.082116 
-169.062897 47.093079 39.498379 90.110180 -64.943576 70.844553 88.980030 -2.525801 167.999103 -131.789101 2.487039 -6.285532 67.747943 7.025847 7.050226 21.454548 0.003096 0.000008 150.466868 14.076291 -162.805974 -70.351509 1.864331 -1.153787 75.541148 8.555533 25.738533 21.454560 -0.003108 -0.000015 10.239183 -1.778840 3.313782 10.362698 -3.847357 6.458144 10.046051 -3.808217 6.481155 11.127392 -12.306046 -7.436964 -26.448794 14.196085 -15.966371 -84.719105 -83.208431 -97.654507 -71.520632 0.471691 8.223477 -31.748403 -17.837492 1.446736 -19.076198 -72.601475 23.348549 87.473604 69.997903 -92.643777 -27.829018 -6.190674 4.972896 -26.088410 9.732954 -0.846278 -14.253436 56.390674 -14.584167 
-168.978699 47.017551 39.897739 87.392871 -64.189892 72.151298 90.727500 -3.534691 168.980191 -131.822801 2.492287 -6.045676 68.430805 6.696655 6.775211 21.454557 0.003094 -0.000001 147.245314 14.771297 -162.120045 -76.626588 1.166945 0.157485 75.484341 7.148050 24.150251 21.454558 -0.003108 -0.000022 10.231508 -1.714779 3.309374 10.350652 -3.718750 6.455068 10.034050 -3.679650 6.477304 9.103868 -12.042248 -6.489471 -26.294090 13.603280 -14.832521 -85.233138 -84.004066 -97.062159 -70.265872 0.966843 7.957880 -31.193836 -17.401362 1.407327 -19.462971 -72.048653 24.243480 87.774788 69.641305 -92.380617 -28.670125 -6.043218 4.068790 -26.078695 9.391598 -0.823854 -12.541048 52.900724 -14.187409 
-168.895798 46.912331 40.217781 85.440093 -63.317056 72.519356 92.523245 -4.766406 169.704601 -131.901608 2.485813 -5.675704 69.192357 6.291741 6.552471 21.454551 0.003090 -0.000000 143.448261 15.620694 -162.287426 -82.656750 0.542594 0.638915 76.585982 6.163424 22.783500 21.454562 -0.003108 -0.000008 10.232615 -1.707731 3.265177 10.354726 -3.700897 6.367341 10.038082 -3.662293 6.389478 6.811368 -12.166855 -5.272051 -26.129722 13.294842 -13.633834 -86.634140 -84.414014 -95.617300 -69.042489 1.446141 7.874719 -30.487519 -17.091830 1.373258 -18.917932 -71.650453 24.037007 87.477149 69.356309 -92.699614 -30.040811 -6.019950 3.505573 -26.281229 9.350054 -0.824429 -10.472724 49.398790 -13.407244 
-168.815201 46.815029 40.557991 83.654511 -62.377515 72.481892 94.488974 -6.295393 170.339372 -131.962998 2.491546 -5.234657 70.233879 5.608375 5.713995 21.454563 0.003089 0.000003 139.172918 16.449904 -162.848594 -88.283836 -0.056028 0.205095 79.384324 5.357997 20.759865 21.454550 -0.003102 -0.000018 10.249162 -1.695720 3.238132 10.389348 -3.675404 6.313764 10.072671 -3.637147 6.335749 4.616120 -12.535409 -4.093648 -26.002508 12.911420 -12.498689 -87.651599 -84.943012 -94.546211 -67.303461 2.080488 7.801826 -30.050650 -16.974171 1.357106 -17.968228 -71.160196 23.438561 87.229999 68.834312 -92.990731 -31.540338 -5.957068 3.886285 -26.419715 9.378231 -0.828536 -8.429899 45.267434 -12.510816 
-168.751007 46.674061 40.902790 81.554528 -61.340037 72.550071 96.679470 -8.007907 170.963569 -131.996097 2.510445 -4.820876 70.984517 5.298608 5.823235 21.454560 0.003087 -0.000001 134.585531 17.185902 -163.116133 -93.503049 -0.749303 0.065601 81.956806 4.452976 18.561350 21.454563 -0.003110 -0.000012 10.288901 -1.625200 3.266596 10.471282 -3.539412 6.375345 10.154690 -3.500793 6.396504 2.729572 -13.395114 -3.021167 -25.932318 12.735573 -11.667057 -89.341845 -85.713895 -92.778763 -65.379950 2.629625 7.608309 -29.463896 -16.548848 1.318566 -17.374183 -70.686611 23.091300 87.331734 68.087212 -92.960097 -32.857021 -5.639672 4.451348 -26.483492 9.425783 -0.832689 -6.447088 40.686006 -12.339569 
-168.704803 46.538380 41.192921 79.689388 -60.307066 72.183365 98.827373 -9.958606 171.271146 -132.063907 2.555332 -4.700356 71.798628 5.241966 6.087398 21.454550 0.003097 0.000001 129.405761 17.800899 -163.382824 -98.221570 -1.323573 1.372875 84.392936 2.796363 17.031054 21.454550 -0.003107 -0.000022 10.332091 -1.552974 3.359450 10.558211 -3.406114 6.565659 10.241802 -3.366358 6.586009 0.546407 -14.395781 -2.023938 -25.218573 12.592232 -10.940195 -90.247303 -86.576800 -91.791022 -63.500194 3.025148 7.443293 -28.648040 -15.810302 1.256048 -15.765335 -70.586351 21.535563 87.308778 67.691799 -93.019294 -34.444989 -5.213541 5.318031 -26.760589 9.553415 -0.845615 -4.557232 35.955987 -12.410469 
-168.697296 46.493320 41.538071 77.182825 -59.440555 72.293707 100.871123 -12.114297 171.629526 -132.083701 2.623834 -4.848691 72.643542 5.400794 6.460330 21.454562 0.003090 0.000001 123.851533 17.934204 -163.099030 -102.312989 -1.730820 3.805644 87.004637 0.140245 14.094641 21.454560 -0.003105 -0.000011 10.358149 -1.381464 3.478776 10.615601 -3.076384 6.818204 10.299470 -3.035113 6.836552 -1.681983 -15.122425 -1.041482 -24.163869 12.207745 -10.064145 -88.509628 -87.798154 -93.419031 -61.053333 3.612555 7.267912 -27.925285 -15.136302 1.199854 -13.158649 -70.495257 18.948550 86.952044 67.469025 -93.389791 -36.237774 -5.043620 7.112681 -27.528186 10.197122 -0.900608 -2.426741 29.967120 -11.860730 
-168.791504 46.473240 41.798370 74.785544 -58.433573 72.266407 102.964002 -14.328509 171.705751 -132.122401 2.711788 -5.225573 73.480077 5.710554 6.832778 21.454551 0.003096 0.000003 118.121483 18.049699 -162.753545 -105.611998 -2.183107 5.659680 89.809106 -1.883970 11.561903 21.454557 -0.003107 -0.000019 10.409521 -1.188698 3.516163 10.727714 -2.698432 6.908520 10.411761 -2.656621 6.924590 -3.259104 -16.184243 0.136832 -23.742084 12.249802 -9.298671 -89.755004 -89.198384 -92.042366 -57.808474 4.174754 7.143726 -27.414269 -14.445070 1.146628 -10.935543 -70.437166 16.672043 86.702701 67.000105 -93.677492 -38.237762 -5.072348 10.778190 -29.002329 11.384640 -1.004074 0.600265 21.673823 -10.283049 
-168.919601 46.601631 42.105228 71.888704 -57.406756 72.516180 105.103306 -16.813296 172.060907 -132.040302 2.815837 -5.657444 74.211508 5.898911 6.692853 21.454553 0.003090 0.000001 112.420775 17.563505 -162.586287 -107.758604 -2.412918 6.462164 92.548899 -2.982858 9.445493 21.454562 -0.003111 -0.000016 10.501874 -0.927959 3.506019 10.926960 -2.183075 6.909644 10.611154 -2.141266 6.922621 -5.028781 -17.241124 1.438816 -23.187456 12.213264 -8.421174 87.735815 -89.671949 90.571853 -54.348263 5.019816 6.687801 -26.917133 -13.728609 1.092186 -9.699731 -70.360811 15.292524 86.911610 66.992510 -93.473550 -41.414234 -4.756796 15.204749 -31.436263 12.860301 -1.146734 2.539998 13.606389 -11.617541 
-169.213898 46.826542 42.405231 68.500227 -56.194364 73.238206 107.355117 -19.590502 172.915255 -131.985510 2.929187 -5.824215 74.959776 5.748078 6.054127 21.454548 0.003088 -0.000006 107.050573 16.785996 -161.765039 -109.272795 -2.598776 7.540847 94.852428 -4.070039 7.914795 21.454557 -0.003108 -0.000026 10.658149 -0.590394 3.431673 11.259615 -1.512220 6.789899 10.943830 -1.471165 6.798854 -5.724485 -18.307769 2.722420 -23.758994 12.075178 -7.533539 87.777404 -88.403944 90.644342 -50.427126 6.215405 6.461031 -26.231543 -13.374252 1.058008 -8.262574 -70.261787 13.516190 87.063472 66.919209 -93.331502 -44.803708 -4.590567 18.899960 -35.279396 14.241716 -1.319552 4.541138 8.308108 -17.650734 
-169.689697 47.036652 42.593552 65.459338 -54.863587 73.934503 109.509338 -22.266294 173.763318 -132.017503 3.028594 -5.911025 75.656387 5.462674 5.093949 21.454550 0.003087 -0.000003 101.717151 16.211001 -160.762313 -110.490406 -2.687872 7.585036 96.840806 -4.259295 7.584770 21.454560 -0.003113 -0.000009 10.848529 -0.308319 3.265095 11.657890 -0.944400 6.482475 11.341984 -0.905171 6.488035 -5.200049 -18.092191 3.703374 -25.566914 10.887531 -6.079158 89.001251 -86.939504 89.555241 -45.938613 7.037329 6.960787 -25.718971 -13.150728 1.035344 -5.476835 -70.348783 10.390628 86.747610 67.398818 -93.596705 -48.066353 -4.868000 20.966609 -40.871449 15.548721 -1.544731 4.612014 2.306673 -22.681513 
-170.297195 47.263371 42.749081 62.506476 -53.512299 74.778981 111.540172 -24.895599 174.760567 -132.054194 3.097817 -5.804325 76.314714 4.975121 3.848249 21.454558 0.003090 -0.000002 96.420783 15.829001 -158.993471 -111.481303 -2.656397 6.032966 98.144860 -3.260669 8.009160 21.454555 -0.003104 -0.000025 11.077612 -0.086523 3.065252 12.129357 -0.494324 6.104380 11.813223 -0.457381 6.107246 -4.035254 -16.638558 4.467257 -27.806629 9.194450 -4.167442 85.392514 -85.656706 93.268446 -41.646365 7.898428 7.717774 -25.132909 -13.235921 1.031529 -2.344263 -70.309202 6.837113 86.408081 67.985995 -93.875431 -49.869421 -5.332876 21.815667 -48.730149 16.095489 -1.812373 3.921004 -2.050070 -23.645382 
-170.988495 47.495831 42.896240 59.831856 -52.302238 75.391082 113.411842 -27.574606 175.541941 -132.046094 3.172932 -5.973626 76.815320 4.596816 2.238508 21.454557 0.003084 -0.000007 91.086604 15.544495 -155.950677 -112.125806 -2.471669 3.191106 98.754222 -1.234432 9.920791 21.454560 -0.003112 -0.000014 11.313720 0.058820 2.900510 12.609646 -0.199236 5.789953 12.293312 -0.164189 5.791053 -3.002656 -14.802418 5.260557 -29.876132 7.791245 -2.218389 82.801195 -84.664505 95.935034 -37.760144 8.485566 8.133980 -24.484599 -13.270240 1.023753 -0.533742 -70.014070 4.528201 86.604620 68.412602 -93.643362 -49.667541 -5.445636 22.523524 -58.118121 15.352891 -2.085145 1.583684 -5.149439 -23.288481 
